<svg xmlns="http://www.w3.org/2000/svg" width="64" height="64"><defs><clipPath id="a"><path d="M0 0h64v64H0z"/></clipPath></defs><g clip-path="url(#a)"><path fill="#fff" d="M33.738 54.106s.809 3.083 5.806 3.861 9.746-1.8 11.956-3.851 4.921-7.687 4.254-10.593a5.7 5.7 0 0 0-2.885-3.894 17.6 17.6 0 0 0-.806-8.114c-1.496-3.832-4.174-12.833-10.147-14.783s-9.185 1.057-9.185 1.057a9.26 9.26 0 0 0-4.315-1.231c-1.942.141-5.214 2.035-5.214 2.035s-2.637-3.861-4.213-6.531-3.215-5.955-6.391-5.123-5.54 5.082-4.321 8.537c2.073 5.865 9.572 13.848 9.572 13.848s-3.243 8.642-2.133 11.581 6.809 7.278 12.769 9.869a36 36 0 0 0 5.042 1.772Z"/><path fill="#090909" d="M37.614 26.655c.18-.476-.441-.989-.941-1.3a4.64 4.64 0 0 0-5.5.726 3.34 3.34 0 0 0-1.036 2.565c.049.277.164.444.322.495.69.206 1.708-1.678 3.91-2.015a11 11 0 0 1 1.813-.134c.508-.025 1.18.054 1.432-.337m6.85-3.628a3.73 3.73 0 0 0-4.775.317 3.4 3.4 0 0 0-.815 1.189c-.194.528-.294 1.175.143 1.428.31.138.729-.106 1.222-.4a6.7 6.7 0 0 1 1.7-.793 13 13 0 0 1 2.627-.2c.973-.13.5-1.1-.1-1.546Z"/><path fill="#090909" d="M57.127 42.396a6.6 6.6 0 0 0-2.934-3.9 18.56 18.56 0 0 0-.988-8.223 37 37 0 0 0-3.907-8.268c-2.188-3.4-5.24-6.99-9.5-7.555a10.35 10.35 0 0 0-7.236 1.712 8.96 8.96 0 0 0-9.05.6 325 325 0 0 0-4.458-7.766c-1.564-2.901-4.698-4.349-7.816-2.931a8.16 8.16 0 0 0-4.757 7.9 13.3 13.3 0 0 0 2.332 6.85c.675.995 1.47 1.952 2.231 2.863 1.653 1.956 3.387 3.99 4.933 5.943a18.8 18.8 0 0 0-1.928 6.334 10.47 10.47 0 0 0 .26 5.52 13.5 13.5 0 0 0 3.6 4.674 32.56 32.56 0 0 0 13.963 6.895c.245 3.555 3.67 6.215 7.331 6.485q.947.087 1.873.087a16.22 16.22 0 0 0 16.077-11.91 9.9 9.9 0 0 0-.026-5.31m-3.083 4.457a12.97 12.97 0 0 1-12.971 9.54c-2.852.077-5.041-.858-5.841-2.88a11.6 11.6 0 0 0 6.758-1.457c.485-.339.7-.57.648-.667s-.368-.064-.905.069a20 20 0 0 1-2.343.4 18.7 18.7 0 0 1-7.184-.954 35.3 35.3 0 0 1-10.966-5.789 14.05 14.05 0 0 1-3.931-4.523 6 6 0 0 1-.2-.529c-.5-1.636.445-5.878 1.067-7.537a51 51 0 0 1 3.477 5.689c.223.354.531 1.053.887 1.045q.164-.031.251-.38a3.6 3.6 0 0 0 .073-.993 15.6 15.6 0 0 0-1.711-5.744c-1.84-3.79-4.838-7.254-7.637-10.539a28 28 0 0 1-2.256-2.95 8.76 8.76 0 0 1-1.37-6.515 4.7 4.7 0 0 1 1.729-2.557 3.5 3.5 0 0 1 2.146-.838 2.84 2.84 0 0 1 2.182 1.354c.056.081.287.468.345.563 2.548 4.366 5.27 9.088 8.518 12.645.573.62 2.408 2.586 3 2.291.173-.139.067-.62-.267-1.359a19 19 0 0 0-.643-1.316c-.59-1.14-1.175-2.185-1.823-3.353a6.585 6.585 0 0 1 8.372.272 20.3 20.3 0 0 1 2.424 2.527c.565.659.925 1.029 1.133.949s.234-.631-.023-1.535a10.2 10.2 0 0 0-2.029-3.683 7.32 7.32 0 0 1 5.867-.127 11.2 11.2 0 0 1 4.043 3.385c3.091 3.869 6.072 9.713 6.766 14.553a16.1 16.1 0 0 1-.425 5.984 14.4 14.4 0 0 1-1.753 3.913c-.4.626-.75 1.091-.981 1.424s-.344.534-.284.628.31.061.7-.131a6.6 6.6 0 0 0 1.529-1.113 12.3 12.3 0 0 0 2.955-4.622 5.79 5.79 0 0 1 .673 4.862Z"/><path fill="#090909" d="M40.911 34.866a8.6 8.6 0 0 0-.683-1.337 2.4 2.4 0 0 0-.834-.771.9.9 0 0 0-1.372.666 1.96 1.96 0 0 0 .165 1.1c1.185 2.4 2.406 4.792 3.618 7.183a3 3 0 0 0 .275.448c.039.052.131.071.285.148a2.95 2.95 0 0 0 .228-1.907 18.5 18.5 0 0 0-1.683-5.529Zm4.385-2.119a2 2 0 0 0-.764-.99.845.845 0 0 0-1.319.582 1.9 1.9 0 0 0 .054 1.058 36 36 0 0 1 1.806 6.871c.073.387.2.758.3 1.137a1.93 1.93 0 0 0 .727-1.625 29 29 0 0 0-.063-3.867 17 17 0 0 0-.743-3.166Zm-8.212 5.709A12 12 0 0 0 36 36.846a1.95 1.95 0 0 0-.88-.59.86.86 0 0 0-1.213.824 1.7 1.7 0 0 0 .35.95 45 45 0 0 1 3.614 5.373c.18.3.3.689.8.792a1.9 1.9 0 0 0 .109-1.43 12.9 12.9 0 0 0-1.694-4.309Z"/></g></svg>