<svg xmlns="http://www.w3.org/2000/svg" width="64" height="64"><defs><clipPath id="a"><path d="M0 0h64v64H0z"/></clipPath></defs><g clip-path="url(#a)"><path fill="#0f0f0f" d="M37.11 56.115c-4.568 1.63-8.295-.1-11.661-2.897-2.34-1.945-4.421-4.2-6.757-6.145-2.558-2.132-5.304-4.037-7.913-6.107-2.337-1.847-4.764-3.619-6.526-6.077a7.35 7.35 0 0 1 1.5-10.348 5.97 5.97 0 0 1 7.76.558c1.519 1.418 2.958 2.922 4.586 4.543.682-4.782 3.478-7.144 8.161-7.73-2.217-2.042-4.25-3.935-6.306-5.8a17.7 17.7 0 0 1-4.117-4.663c-1.689-3.193-1.258-6.469 1.19-8.818a7.05 7.05 0 0 1 9.02-.868 30.4 30.4 0 0 1 4.909 4.691c2.304 2.54 4.414 5.256 6.71 7.805a33.2 33.2 0 0 0 7.664 6.035 39.3 39.3 0 0 1 5.388 4.171 7.74 7.74 0 0 1 2.523 5.66 61 61 0 0 1-.283 6.603c-.035.51-.08.793.515 1 2.766.953 4.022 3.061 4.172 5.86a14.12 14.12 0 0 1-2.97 8.956 16.95 16.95 0 0 1-8.509 6.76 11 11 0 0 1-3.961.528 5.8 5.8 0 0 1-5.095-3.717m8.562-26.12a10 10 0 0 1-.22 1.44 3.6 3.6 0 0 1-3.804 2.472c-.305-.012-.732-.091-.899.07a16.7 16.7 0 0 0-2.463 2.66c-1.272 1.945-1.114 4.072-.378 6.191.215.616.426 1.233.699 2.022a4.16 4.16 0 0 1-3.038-2.52 27.5 27.5 0 0 1-1.142-3.564c-2.691 3.34-5.92 3.303-9.394 1.06-.824 2.092-1.938 3.15-3.18 2.958.26-.534.51-1.043.758-1.554.756-1.563.689-2.13-.569-3.308-2.128-1.997-4.309-3.936-6.436-5.933-1.448-1.358-2.817-2.813-4.273-4.169a2.737 2.737 0 0 0-4.737 1.145 4.93 4.93 0 0 0-.012 2.778 5.16 5.16 0 0 0 1.503 2.285c2.332 2.053 4.712 4.058 7.17 5.958a80.5 80.5 0 0 1 9.579 8.018 35.3 35.3 0 0 0 5.043 4.43c2.476 1.767 5.274 2.353 7.993.573a22.4 22.4 0 0 0 3.254-3.205l.904-.908a6.5 6.5 0 0 1-1.443 4.316 1.455 1.455 0 0 0-.168 1.675 2.22 2.22 0 0 0 2.07 1.46 8.2 8.2 0 0 0 2.718-.425 14.26 14.26 0 0 0 7.578-7.013 9.74 9.74 0 0 0 1.4-5.311 2.485 2.485 0 0 0-2.45-2.62 13.1 13.1 0 0 1-4.215 5.268 6.3 6.3 0 0 1-5.153 1.227 2.7 2.7 0 0 1-.76-.506 3.3 3.3 0 0 1 .581-.69 21 21 0 0 0 2.645-1.706c4.4-4.075 5.628-9.215 4.806-14.972a4.46 4.46 0 0 0-1.691-2.93c-.754-.597-1.422-1.313-2.216-1.838a54 54 0 0 0-5.052-3.088c-1.333-.683-2.06-.47-2.925.719q-2.704 3.718-5.23 7.576c-.822 1.256-.507 2.156.784 2.99a3.75 3.75 0 0 0 5.037-.825 51 51 0 0 0 3.353-4.393 5.4 5.4 0 0 1 .636-.608 2.6 2.6 0 0 1 .406.814 6 6 0 0 1-.042 1.62c-.114.674-.338 1.33-.527 2.037 1.423.164 2.12-1.127 3.491-1.669ZM32.28 36.53c-3.751-2.662-4.404-4.306-3.044-7.916l-2.529-1.488a4.38 4.38 0 0 1 3.29.136c2.58-2.747 3.78-6.505 6.807-8.763-1.502-1.692-2.974-3.339-4.432-4.997-2.244-2.55-4.441-5.143-6.743-7.641a6.65 6.65 0 0 0-2.355-1.574 3.52 3.52 0 0 0-3.955.993A3.23 3.23 0 0 0 18.567 9a8.5 8.5 0 0 0 1.386 2.38c2.34 2.68 4.857 5.211 7.103 7.964a26 26 0 0 1 2.773 4.773 5.8 5.8 0 0 1 .234 1.912l-.34.245c-.835-2.224-2.395-1.388-3.818-1.144a6 6 0 0 0-.83.23 4.515 4.515 0 0 0-2.677 6.9 15.3 15.3 0 0 0 5.579 5.313c1.731 1.016 3.106.624 4.298-1.05Z"/><path fill="#fcfcfc" d="M45.673 29.994c-1.376.543-2.07 1.832-3.492 1.67.188-.71.411-1.365.528-2.037a6 6 0 0 0 .042-1.621 2.6 2.6 0 0 0-.406-.814 5.5 5.5 0 0 0-.636.608 51 51 0 0 1-3.357 4.393 3.75 3.75 0 0 1-5.038.824c-1.289-.832-1.603-1.73-.783-2.99q2.52-3.85 5.23-7.575c.863-1.192 1.592-1.402 2.925-.719a54 54 0 0 1 5.05 3.088c.797.528 1.466 1.244 2.217 1.839a4.46 4.46 0 0 1 1.691 2.93c.822 5.76-.411 10.898-4.809 14.972a21 21 0 0 1-2.645 1.707 3.2 3.2 0 0 0-.581.689 2.7 2.7 0 0 0 .76.506 6.3 6.3 0 0 0 5.153-1.227 13.1 13.1 0 0 0 4.214-5.263 2.485 2.485 0 0 1 2.449 2.62 9.74 9.74 0 0 1-1.4 5.312 14.26 14.26 0 0 1-7.578 7.012 8.2 8.2 0 0 1-2.716.425 2.22 2.22 0 0 1-2.07-1.46 1.45 1.45 0 0 1 .168-1.671 6.5 6.5 0 0 0 1.442-4.317l-.904.909a22.3 22.3 0 0 1-3.254 3.205c-2.72 1.778-5.517 1.194-7.993-.574a35.3 35.3 0 0 1-5.043-4.43 80.5 80.5 0 0 0-9.573-8.013c-2.458-1.9-4.837-3.905-7.17-5.958a5.2 5.2 0 0 1-1.503-2.285 4.9 4.9 0 0 1 .013-2.778 2.737 2.737 0 0 1 4.736-1.145c1.455 1.354 2.822 2.808 4.273 4.17 2.126 1.997 4.308 3.936 6.436 5.932 1.26 1.18 1.325 1.746.569 3.308l-.758 1.554c1.242.191 2.358-.862 3.18-2.96 3.473 2.248 6.706 2.28 9.394-1.058a27.5 27.5 0 0 0 1.142 3.564 4.15 4.15 0 0 0 3.037 2.52c-.273-.791-.484-1.409-.698-2.023-.737-2.114-.895-4.246.377-6.19a16.7 16.7 0 0 1 2.464-2.66c.167-.162.594-.083.898-.07a3.6 3.6 0 0 0 3.805-2.472 10 10 0 0 0 .22-1.44Z"/><path fill="#fbfbfa" d="M32.281 36.53c-1.191 1.672-2.567 2.065-4.298 1.048a15.3 15.3 0 0 1-5.58-5.313 4.515 4.515 0 0 1 2.677-6.898 6 6 0 0 1 .831-.23c1.418-.25 2.98-1.084 3.819 1.143l.34-.245a5.8 5.8 0 0 0-.235-1.912 25.8 25.8 0 0 0-2.77-4.78c-2.253-2.754-4.765-5.284-7.11-7.972a8.5 8.5 0 0 1-1.386-2.38 3.225 3.225 0 0 1 .754-3.715 3.52 3.52 0 0 1 3.95-.991 6.7 6.7 0 0 1 2.355 1.574c2.302 2.498 4.5 5.09 6.743 7.642 1.458 1.658 2.93 3.304 4.432 4.996-3.029 2.259-4.227 6.02-6.807 8.763a4.38 4.38 0 0 0-3.29-.136l2.53 1.488c-1.36 3.61-.706 5.257 3.043 7.916Zm1.908-18.695a3.97 3.97 0 0 0-3.6 1.47c-.59.58-1.098 1.231-.827 2.167 1.425-.173 4.163-2.386 4.43-3.64Z"/><path fill="#0f0f0f" d="M34.187 17.836c-.268 1.253-3.005 3.467-4.426 3.638-.273-.936.238-1.587.827-2.167a3.96 3.96 0 0 1 3.599-1.47"/></g></svg>